<svg xmlns="http://www.w3.org/2000/svg" viewBox="0 0 528 528"><defs><style>.cls-1{fill:#c80000;}.cls-2{fill:#29bf12;}</style></defs><g id="Layer_2" data-name="Layer 2"><g id="Layer_1-2" data-name="Layer 1"><circle class="cls-1" cx="387.83" cy="46.72" r="14.05"/><path class="cls-2" d="M14.05,278.05A14,14,0,0,1,0,264,263.78,263.78,0,0,1,264,0a14.06,14.06,0,0,1,0,28.11C133.93,28.11,28.11,133.93,28.11,264A14.05,14.05,0,0,1,14.05,278.05Z"/><path class="cls-1" d="M264,528c-5.89,0-11.83-.2-17.68-.58a14.06,14.06,0,1,1,1.85-28c5.24.34,10.56.52,15.83.52,130.07,0,235.89-105.82,235.89-235.89,0-4.43-.12-8.92-.37-13.34a14.06,14.06,0,1,1,28.07-1.55c.27,4.93.41,9.94.41,14.89A263.78,263.78,0,0,1,264,528Z"/><circle class="cls-2" cx="85.47" cy="438.73" r="14.05"/><path class="cls-1" d="M235.18,128.19c4.91-16,11.38-72.31,35.75-68.88,21.06,7.74,24.82,50.39,30.47,69.15C374.21,69.14,415,83.74,350.17,168.33a177.08,177.08,0,0,1,48.39,58.48c17,30.65,9.67,67.46-8.39,95.88-14.48,25.1-27.91,50.78-41.69,76.28-9.1,16.07-15.83,34.19-29.83,46.81-24.66,23.41-65.12,26.16-92.72,6.3-20.82-13.95-29.14-38.66-41.06-59.57-10.94-19.84-21.19-40.05-32.56-59.65-21.19-33.6-34-70.44-13.29-107.76,11.33-20.72,26.1-39.9,44.92-54.36,3.16-2.39,2.81-2.06.61-5-3.46-4.61-6.84-9.29-10-14.08C166.38,138.18,139,99.23,165,92.24,188.26,91.77,216.82,114.74,235.18,128.19Zm5.32,42.6c-10.32,14.06-29.09,17.68-43.39,8.21-2.59-1.87-4.75,2-6.89,3.12-29.16,25.21-58.47,64.24-45.63,104.7,8.11,25.71,24.89,47.57,36.69,71.64q11.39,21.09,22.63,42.26c7.77,13.76,13.7,29.29,26.91,38.87,28.31,23,74.06,13.72,91.1-18.55,15.07-27.66,29.4-55.73,44.9-83.16,9.58-18.54,22.36-35.91,26.78-56.64,7.15-27.93-7.59-55-24.58-76.25a142,142,0,0,0-17-18.11c-2.94-1.76-8.79-9.4-11.9-8-13.08,8.84-31.95,6.58-42-5.81-.74-.71-1.3-2.82-2.5-1.81C281.87,188.54,253.93,188.34,240.5,170.79Zm35.41-.68c22.84-9.85,12.51-37.26,9.16-55.84-3.44-11.44-7.58-35.86-17.36-42.49-11.18,13.82-13.39,33-17.87,49.83-3.11,16.43-9.92,42.18,11.76,48.22.29-11.78,0-23.48.14-35.25-.11-3.15.63-6.66,3.89-7.82,4.4-2.26,9.43,1.43,9.18,6.66-.11,11.25,0,22.51-.07,33.76A3,3,0,0,0,275.91,170.11Zm-108.82-65c.41,12.68,9.39,23.61,15.08,34.55,9.08,13.34,21.44,40.06,41.22,29-8.21-8.45-16.6-16.63-24.91-25-4.08-3.51-1.89-10.64,3.4-11.32,6.55-1.18,23,21.44,29.9,26.17,6.14-12.57-6.49-22.4-15.73-28.68C200.87,120.15,185.34,107.54,167.09,105.12Zm202.7,0c-19.47,2.67-36.05,16.1-52,26.82-7.74,5.5-15.86,12.54-14,23,.7,8.71,3.73,3.54,7.5,0,6.7-6.72,13.38-13.46,20.14-20.13,4.07-4.88,12.2-2.07,11.66,4.54-.41,3.91-4.19,5.92-6.54,8.66-7.11,7.24-14.43,14.22-21.41,21.59,13.35,6.58,24.12-6.55,30.73-16.64C354.81,138.62,367.91,122.21,369.79,105.14Z"/><circle class="cls-1" cx="330.85" cy="23.17" r="14.05"/><circle class="cls-1" cx="441.77" cy="88.51" r="14.05"/><circle class="cls-1" cx="480.52" cy="140.17" r="14.05"/><circle class="cls-1" cx="504.83" cy="200.94" r="14.05"/><circle class="cls-2" cx="198.66" cy="504.83" r="14.05"/><circle class="cls-2" cx="141.69" cy="482.04" r="14.05"/><circle class="cls-2" cx="46.72" cy="387.07" r="14.05"/><circle class="cls-2" cx="23.17" cy="331.61" r="14.05"/></g></g></svg>